HIERARCHY
ROOT Hips
{
	OFFSET 0.000000 35.082581 0.000000
	CHANNELS 6 Xposition Yposition Zposition Xrotation Yrotation Zrotation 
	JOINT Spine
	{
		OFFSET 0.000000 6.876099 0.125700
		CHANNELS 3 Xrotation Yrotation Zrotation
		JOINT Spine1
		{
			OFFSET 0.000000 5.730043 0.104720
			CHANNELS 3 Xrotation Yrotation Zrotation
			JOINT Spine1_split
			{
				OFFSET 0.000000 5.730043 0.104720
				CHANNELS 3 Xrotation Yrotation Zrotation
				JOINT Spine2
				{
					OFFSET 0.000000 5.730043 0.104720
					CHANNELS 3 Xrotation Yrotation Zrotation
					JOINT Neck
					{
						OFFSET 0.000000 10.314075 0.188496
						CHANNELS 3 Xrotation Yrotation Zrotation
						JOINT Head
						{
							OFFSET 0.000000 7.643700 -2.377400
							CHANNELS 3 Xrotation Yrotation Zrotation
							JOINT HeadTop_End
							{
								OFFSET 0.000000 43.788605 -13.619600
								CHANNELS 3 Xrotation Yrotation Zrotation
								End Site
								{
									OFFSET 0.000000 0.000000 0.000000
								}
							}
						}
					}
					JOINT LeftShoulder
					{
						OFFSET 2.196100 4.412489 0.087492
						CHANNELS 3 Xrotation Yrotation Zrotation
						JOINT LeftShoulder_split
						{
							OFFSET 2.196100 4.412489 0.087492
							CHANNELS 3 Xrotation Yrotation Zrotation
							JOINT LeftArm
							{
								OFFSET 8.771219 -2.981674 -0.026999
								CHANNELS 3 Xrotation Yrotation Zrotation
								JOINT LeftForeArm
								{
									OFFSET 8.512804 0.000000 -0.000000
									CHANNELS 3 Xrotation Yrotation Zrotation
									JOINT LeftHand
									{
										OFFSET 18.484802 0.000000 -0.000000
										CHANNELS 3 Xrotation Yrotation Zrotation
										JOINT LeftHandThumb1
										{
											OFFSET 2.499420 -1.158070 2.653252
											CHANNELS 3 Xrotation Yrotation Zrotation
											JOINT LeftHandThumb2
											{
												OFFSET 2.370079 -1.368366 1.368366
												CHANNELS 3 Xrotation Yrotation Zrotation
												JOINT LeftHandThumb3
												{
													OFFSET 2.676727 -1.545410 1.545409
													CHANNELS 3 Xrotation Yrotation Zrotation
													JOINT LeftHandThumb4
													{
														OFFSET 1.692226 -0.977005 0.977007
														CHANNELS 3 Xrotation Yrotation Zrotation
														End Site
														{
															OFFSET 0.000000 0.000000 0.000000
														}
													}
												}
											}
										}
										JOINT LeftHandIndex1
										{
											OFFSET 7.924831 -0.457527 2.345128
											CHANNELS 3 Xrotation Yrotation Zrotation
											JOINT LeftHandIndex2
											{
												OFFSET 3.643303 0.000000 0.000000
												CHANNELS 3 Xrotation Yrotation Zrotation
												JOINT LeftHandIndex3
												{
													OFFSET 3.810799 0.000000 0.000000
													CHANNELS 3 Xrotation Yrotation Zrotation
													JOINT LeftHandIndex4
													{
														OFFSET 2.403702 0.000000 0.000000
														CHANNELS 3 Xrotation Yrotation Zrotation
														End Site
														{
															OFFSET 0.000000 0.000000 0.000000
														}
													}
												}
											}
										}
										JOINT LeftHandMiddle1
										{
											OFFSET 8.563995 0.000000 -0.000000
											CHANNELS 3 Xrotation Yrotation Zrotation
											JOINT LeftHandMiddle2
											{
												OFFSET 3.861618 0.000000 0.000000
												CHANNELS 3 Xrotation Yrotation Zrotation
												JOINT LeftHandMiddle3
												{
													OFFSET 3.701603 0.000000 0.000000
													CHANNELS 3 Xrotation Yrotation Zrotation
													JOINT LeftHandMiddle4
													{
														OFFSET 2.322544 0.000000 0.000000
														CHANNELS 3 Xrotation Yrotation Zrotation
														End Site
														{
															OFFSET 0.000000 0.000000 0.000000
														}
													}
												}
											}
										}
										JOINT LeftHandRing1
										{
											OFFSET 8.426460 -0.424637 -3.286992
											CHANNELS 3 Xrotation Yrotation Zrotation
											JOINT LeftHandRing2
											{
												OFFSET 3.126408 0.000000 0.000000
												CHANNELS 3 Xrotation Yrotation Zrotation
												JOINT LeftHandRing3
												{
													OFFSET 3.085026 0.000000 0.000000
													CHANNELS 3 Xrotation Yrotation Zrotation
													JOINT LeftHandRing4
													{
														OFFSET 1.644005 0.000000 0.000000
														CHANNELS 3 Xrotation Yrotation Zrotation
														End Site
														{
															OFFSET 0.000000 0.000000 0.000000
														}
													}
												}
											}
										}
									}
								}
							}
						}
					}
					JOINT RightShoulder
					{
						OFFSET -2.196100 4.412496 0.070690
						CHANNELS 3 Xrotation Yrotation Zrotation
						JOINT RightShoulder_split
						{
							OFFSET -2.196100 4.412496 0.070690
							CHANNELS 3 Xrotation Yrotation Zrotation
							JOINT RightArm
							{
								OFFSET -8.771282 -2.981682 -0.094208
								CHANNELS 3 Xrotation Yrotation Zrotation
								JOINT RightForeArm
								{
									OFFSET -8.494598 0.000000 0.000000
									CHANNELS 3 Xrotation Yrotation Zrotation
									JOINT RightHand
									{
										OFFSET -18.483803 0.000000 0.000001
										CHANNELS 3 Xrotation Yrotation Zrotation
										JOINT RightHandThumb1
										{
											OFFSET -2.527351 -1.008072 2.575253
											CHANNELS 3 Xrotation Yrotation Zrotation
											JOINT RightHandThumb2
											{
												OFFSET -2.321518 -1.340328 1.340329
												CHANNELS 3 Xrotation Yrotation Zrotation
												JOINT RightHandThumb3
												{
													OFFSET -2.657753 -1.534454 1.534455
													CHANNELS 3 Xrotation Yrotation Zrotation
													JOINT RightHandThumb4
													{
														OFFSET -1.807510 -1.043568 1.043567
														CHANNELS 3 Xrotation Yrotation Zrotation
														End Site
														{
															OFFSET 0.000000 0.000000 0.000000
														}
													}
												}
											}
										}
										JOINT RightHandIndex1
										{
											OFFSET -8.811420 0.015533 2.887987
											CHANNELS 3 Xrotation Yrotation Zrotation
											JOINT RightHandIndex2
											{
												OFFSET -3.537502 0.000000 0.000000
												CHANNELS 3 Xrotation Yrotation Zrotation
												JOINT RightHandIndex3
												{
													OFFSET -3.356201 0.000000 0.000000
													CHANNELS 3 Xrotation Yrotation Zrotation
													JOINT RightHandIndex4
													{
														OFFSET -1.933098 0.000000 0.000000
														CHANNELS 3 Xrotation Yrotation Zrotation
														End Site
														{
															OFFSET 0.000000 0.000000 0.000000
														}
													}
												}
											}
										}
										JOINT RightHandMiddle1
										{
											OFFSET -8.178135 0.000000 0.000000
											CHANNELS 3 Xrotation Yrotation Zrotation
											JOINT RightHandMiddle2
											{
												OFFSET -3.901302 0.000000 0.000000
												CHANNELS 3 Xrotation Yrotation Zrotation
												JOINT RightHandMiddle3
												{
													OFFSET -3.909599 0.000000 0.000000
													CHANNELS 3 Xrotation Yrotation Zrotation
													JOINT RightHandMiddle4
													{
														OFFSET -2.376003 0.000000 0.000000
														CHANNELS 3 Xrotation Yrotation Zrotation
														End Site
														{
															OFFSET 0.000000 0.000000 0.000000
														}
													}
												}
											}
										}
										JOINT RightHandRing1
										{
											OFFSET -7.559013 0.014137 -2.865403
											CHANNELS 3 Xrotation Yrotation Zrotation
											JOINT RightHandRing2
											{
												OFFSET -3.449306 0.000000 0.000000
												CHANNELS 3 Xrotation Yrotation Zrotation
												JOINT RightHandRing3
												{
													OFFSET -3.362106 0.000000 0.000000
													CHANNELS 3 Xrotation Yrotation Zrotation
													JOINT RightHandRing4
													{
														OFFSET -2.076401 0.000000 0.000000
														CHANNELS 3 Xrotation Yrotation Zrotation
														End Site
														{
															OFFSET 0.000000 0.000000 0.000000
														}
													}
												}
											}
										}
									}
								}
							}
						}
					}
				}
			}
		}
	}
	JOINT LeftUpLeg
	{
		OFFSET 10.205400 -3.823500 0.155100
		CHANNELS 3 Xrotation Yrotation Zrotation
		JOINT LeftLeg
		{
			OFFSET 0.708757 -12.982077 0.567790
			CHANNELS 3 Xrotation Yrotation Zrotation
			JOINT LeftFoot
			{
				OFFSET -0.708756 -10.717838 -2.184338
				CHANNELS 3 Xrotation Yrotation Zrotation
				JOINT LeftToeBase
				{
					OFFSET 0.108149 -7.191104 7.560241
					CHANNELS 3 Xrotation Yrotation Zrotation
					JOINT LeftToe_End
					{
						OFFSET 0.070230 0.081724 4.490308
						CHANNELS 3 Xrotation Yrotation Zrotation
						End Site
						{
							OFFSET 0.000000 0.000000 0.000000
						}
					}
				}
			}
		}
	}
	JOINT RightUpLeg
	{
		OFFSET -10.205400 -3.823500 0.005500
		CHANNELS 3 Xrotation Yrotation Zrotation
		JOINT RightLeg
		{
			OFFSET -0.708756 -12.982134 0.610632
			CHANNELS 3 Xrotation Yrotation Zrotation
			JOINT RightFoot
			{
				OFFSET 0.708754 -10.717769 -1.945823
				CHANNELS 3 Xrotation Yrotation Zrotation
				JOINT RightToeBase
				{
					OFFSET -0.108140 -7.191069 7.372968
					CHANNELS 3 Xrotation Yrotation Zrotation
					JOINT RightToe_End
					{
						OFFSET -0.070227 0.081735 4.479403
						CHANNELS 3 Xrotation Yrotation Zrotation
						End Site
						{
							OFFSET 0.000000 0.000000 0.000000
						}
					}
				}
			}
		}
	}
}
MOTION
Frames: 5
Frame Time: 0.016667
-1.078769 5.679625 10.368652 -87.577109 -3.402106 1.782766 0.707068 1.334855 -3.858670 -2.712473 0.550122 0.069934 0.000000 0.000000 0.000000 -2.709985 0.572754 0.085568 3.954685 -0.162521 0.200794 7.663459 -2.706720 7.904899 -0.000000 -0.000000 -0.000000 1.279294 -13.498970 -1.883360 0.000000 0.000000 0.000000 20.483966 -1.014524 -70.993492 -0.000028 -137.491489 -0.000018 -17.619159 18.840496 -43.362798 -7.220079 -16.942356 15.004560 7.558156 31.509538 -3.040771 -10.327321 16.515331 14.878093 -0.000001 0.000001 -0.000000 -0.024119 4.029252 2.883329 0.551240 2.482840 -25.032245 0.198058 -1.511908 14.925334 0.000000 0.000000 -0.000000 -0.237397 3.164793 12.085511 0.825496 3.000293 -30.761082 0.172878 -1.414082 13.939007 -0.000000 0.000000 -0.000001 -0.227158 2.636212 15.396440 0.647034 2.678214 -27.159650 0.198063 -1.511909 14.925350 -0.000000 -0.000000 0.000002 0.515809 6.973524 0.064737 0.000000 0.000000 0.000000 15.875315 6.901695 66.846501 -0.000029 133.087998 -0.000002 -16.503233 -12.599694 49.917403 -19.372343 9.812740 -17.628139 16.805773 -33.149124 6.482063 3.930034 -4.675000 -18.270498 0.000002 -0.000000 0.000001 -0.578704 -1.290232 19.415296 -0.000003 -0.000003 0.000008 0.000368 -0.059110 0.725563 0.000002 0.000000 -0.000001 0.900194 -7.884219 9.062699 0.294483 -1.631385 20.463686 0.051646 -0.692354 8.531053 -0.000001 0.000000 0.000000 0.740069 -10.091155 4.911410 1.354389 -3.285243 44.799969 0.134870 1.113832 -13.807957 0.000000 0.000001 0.000000 -27.072327 18.624789 -13.841887 31.971180 -4.315752 -10.126549 -2.408485 6.623202 13.923136 -0.279189 0.000002 0.000005 0.000000 -0.000000 -0.000001 -0.928866 -10.047523 4.224015 -4.572439 -11.615538 3.971815 14.810908 -3.380678 22.118284 -1.652910 0.000016 -0.000008 0.000000 -0.000000 0.000002 
-1.078842 5.679794 10.368900 -87.581474 -3.402906 1.781351 0.714178 1.343752 -3.854130 -2.713523 0.552117 0.068063 0.000000 0.000000 0.000000 -2.711048 0.574704 0.083783 3.956768 -0.164480 0.200224 7.651830 -2.723798 7.913642 -0.000001 -0.000000 0.000000 1.279881 -13.506586 -1.882599 0.000000 0.000000 0.000000 20.471335 -1.017552 -70.987140 -0.000017 -137.488211 -0.000012 -17.622347 18.842187 -43.369522 -7.219525 -16.942882 15.007522 7.558159 31.509541 -3.040768 -10.327325 16.515329 14.878092 -0.000000 -0.000000 -0.000005 -0.024117 4.029271 2.883337 0.551021 2.482378 -25.027254 0.198066 -1.511907 14.925345 -0.000000 0.000000 0.000000 -0.237391 3.164817 12.085517 0.825493 3.000290 -30.761061 0.173175 -1.415299 13.951224 -0.000000 -0.000000 -0.000000 -0.227162 2.636225 15.396442 0.646800 2.677728 -27.154269 0.198048 -1.511914 14.925355 0.000000 0.000000 -0.000001 0.515565 6.970744 0.064753 0.000000 0.000000 0.000000 15.874036 6.887361 66.861173 -0.000035 133.090416 -0.000002 -16.497989 -12.596073 49.928266 -19.372343 9.812735 -17.628143 16.805769 -33.149124 6.482057 3.930037 -4.675004 -18.270496 0.000001 -0.000002 -0.000000 -0.578711 -1.290232 19.415299 -0.000002 -0.000003 0.000007 0.000368 -0.059110 0.725564 0.000000 -0.000000 0.000000 0.900191 -7.884216 9.062701 0.294483 -1.631385 20.463686 0.051646 -0.692355 8.531056 -0.000001 -0.000001 -0.000001 0.740065 -10.091152 4.911411 1.354389 -3.285242 44.799966 0.134872 1.113833 -13.807959 0.000001 -0.000000 -0.000001 -27.065975 18.622190 -13.840717 31.967116 -4.316131 -10.125690 -2.401310 6.618883 13.910933 -0.292426 -0.000003 0.000007 -0.000001 -0.000001 -0.000000 -0.929958 -10.049525 4.225427 -4.572646 -11.615504 3.971821 14.812088 -3.384595 22.113692 -1.649899 0.000026 0.000020 -0.000000 0.000001 0.000004 
-1.078895 5.679585 10.369053 -87.581733 -3.402168 1.779083 0.716885 1.349750 -3.848264 -2.714813 0.553227 0.066522 0.000000 0.000000 0.000000 -2.712326 0.575769 0.082299 3.958946 -0.166341 0.200117 7.643614 -2.740683 7.924390 -0.000000 0.000000 0.000000 1.280306 -13.511008 -1.881040 0.000000 0.000000 0.000000 20.463066 -1.020406 -70.982461 0.000017 -137.485096 0.000009 -17.625459 18.842375 -43.375516 -7.218013 -16.944371 15.015862 7.558159 31.509544 -3.040770 -10.327322 16.515327 14.878088 -0.000002 0.000001 -0.000000 -0.024120 4.029267 2.883326 0.550413 2.481052 -25.013018 0.198052 -1.511910 14.925343 0.000000 -0.000000 -0.000001 -0.237389 3.164812 12.085518 0.825488 3.000281 -30.761079 0.174036 -1.418735 13.985904 0.000001 0.000000 -0.000000 -0.227156 2.636214 15.396447 0.646080 2.676336 -27.138966 0.198050 -1.511910 14.925346 0.000000 -0.000000 -0.000000 0.515695 6.970295 0.064805 0.000000 0.000000 0.000000 15.871042 6.874121 66.875270 -0.000017 133.093736 0.000011 -16.491411 -12.597524 49.941756 -19.372344 9.812738 -17.628141 16.805771 -33.149124 6.482063 3.930033 -4.675000 -18.270498 0.000002 0.000000 -0.000006 -0.578707 -1.290232 19.415301 -0.000004 -0.000003 0.000007 0.000369 -0.059110 0.725563 -0.000001 -0.000000 -0.000000 0.900194 -7.884218 9.062701 0.294485 -1.631385 20.463686 0.051647 -0.692354 8.531054 -0.000001 -0.000000 -0.000001 0.740069 -10.091155 4.911410 1.354389 -3.285242 44.799969 0.134871 1.113833 -13.807957 -0.000000 0.000001 0.000000 -27.066686 18.621331 -13.838026 31.965149 -4.317252 -10.125426 -2.393579 6.618189 13.903224 -0.292832 0.000000 -0.000009 -0.000000 -0.000000 -0.000001 -0.930595 -10.051545 4.226460 -4.572994 -11.614995 3.971737 14.812840 -3.388436 22.109838 -1.646635 -0.000009 0.000013 0.000002 -0.000005 0.000000 
-1.078908 5.679119 10.369152 -87.579541 -3.399521 1.777080 0.717071 1.353225 -3.842320 -2.716201 0.553642 0.065173 0.000000 0.000000 0.000000 -2.713706 0.576141 0.080982 3.961072 -0.168044 0.200409 7.637743 -2.756497 7.936149 0.000000 -0.000000 0.000000 1.280685 -13.512910 -1.878513 0.000000 0.000000 0.000000 20.458054 -1.023369 -70.979408 -0.000001 -137.481777 0.000003 -17.628582 18.841804 -43.381263 -7.215889 -16.946485 15.027564 7.558162 31.509548 -3.040776 -10.327324 16.515327 14.878093 -0.000001 -0.000000 -0.000004 -0.024125 4.029244 2.883314 0.549558 2.479208 -24.993079 0.198048 -1.511909 14.925345 0.000000 0.000000 0.000001 -0.237393 3.164792 12.085513 0.825484 3.000279 -30.761089 0.175244 -1.423576 14.034559 0.000001 0.000000 0.000000 -0.227158 2.636207 15.396428 0.645080 2.674379 -27.117475 0.198049 -1.511918 14.925334 0.000000 -0.000000 0.000002 0.516033 6.971513 0.064810 0.000000 0.000000 0.000000 15.867211 6.862417 66.888889 0.000003 133.097151 -0.000023 -16.483903 -12.601876 49.956427 -19.372346 9.812737 -17.628141 16.805776 -33.149124 6.482057 3.930036 -4.674998 -18.270495 0.000001 -0.000002 -0.000000 -0.578707 -1.290232 19.415296 -0.000003 -0.000003 0.000007 0.000370 -0.059110 0.725563 -0.000001 -0.000000 -0.000001 0.900192 -7.884218 9.062701 0.294485 -1.631387 20.463686 0.051646 -0.692355 8.531052 0.000001 0.000002 -0.000001 0.740069 -10.091154 4.911412 1.354390 -3.285242 44.799972 0.134872 1.113834 -13.807956 -0.000001 -0.000002 0.000000 -27.072187 18.622381 -13.835986 31.966709 -4.317097 -10.124496 -2.387269 6.619150 13.901320 -0.288141 -0.000011 -0.000005 0.000001 -0.000001 0.000003 -0.931534 -10.053653 4.226843 -4.572115 -11.613831 3.971823 14.812517 -3.392425 22.106570 -1.643221 0.000021 -0.000010 0.000001 -0.000000 0.000001 
-1.078928 5.678558 10.369267 -87.576365 -3.395054 1.776021 0.715047 1.353434 -3.836770 -2.717587 0.553202 0.064004 0.000000 0.000000 0.000000 -2.715123 0.575667 0.079816 3.962984 -0.169444 0.201217 7.634371 -2.769834 7.948577 0.000001 -0.000000 -0.000000 1.280967 -13.511725 -1.874329 0.000000 0.000000 0.000000 20.456937 -1.026659 -70.978793 0.000001 -137.477788 -0.000003 -17.631645 18.840623 -43.386991 -7.213040 -16.949282 15.043246 7.558160 31.509544 -3.040777 -10.327325 16.515324 14.878087 -0.000004 -0.000003 -0.000002 -0.024122 4.029270 2.883324 0.548390 2.476723 -24.966416 0.198054 -1.511894 14.925348 0.000001 0.000000 0.000001 -0.237400 3.164803 12.085512 0.825494 3.000281 -30.761079 0.176864 -1.430040 14.099635 0.000000 -0.000000 0.000000 -0.227161 2.636204 15.396428 0.643742 2.671774 -27.088761 0.198054 -1.511915 14.925341 0.000000 -0.000000 0.000001 0.516563 6.974772 0.064844 0.000000 0.000000 0.000000 15.862894 6.852986 66.901901 -0.000036 133.100115 0.000001 -16.475533 -12.608677 49.971778 -19.372344 9.812736 -17.628136 16.805768 -33.149124 6.482066 3.930033 -4.675002 -18.270496 -0.000001 0.000000 -0.000000 -0.578708 -1.290232 19.415299 -0.000004 -0.000002 0.000008 0.000367 -0.059110 0.725564 -0.000000 -0.000000 0.000000 0.900192 -7.884217 9.062701 0.294483 -1.631385 20.463686 0.051646 -0.692353 8.531057 0.000001 0.000000 -0.000002 0.740069 -10.091153 4.911411 1.354389 -3.285244 44.799969 0.134874 1.113833 -13.807958 0.000000 -0.000001 0.000003 -27.078562 18.624213 -13.835457 31.968219 -4.315673 -10.123524 -2.381109 6.620060 13.902737 -0.283604 -0.000002 0.000009 0.000000 -0.000000 0.000000 -0.931750 -10.055715 4.227188 -4.572298 -11.612657 3.971819 14.812394 -3.396163 22.103395 -1.639605 0.000014 -0.000005 0.000002 0.000002 0.000000 
